{
	"asset":{
		"generator":"Khronos glTF Blender I/O v4.1.63",
		"version":"2.0"
	},
	"scene":0,
	"scenes":[
		{
			"name":"Scene",
			"nodes":[
				8
			]
		}
	],
	"nodes":[
		{
			"mesh":0,
			"name":"Bendy strip.001"
		},
		{
			"children":[
				0
			],
			"name":"Bendy strip",
			"scale":[
				100,
				100,
				100
			]
		},
		{
			"mesh":1,
			"name":"Label.001"
		},
		{
			"children":[
				2
			],
			"name":"Label",
			"scale":[
				100,
				100,
				100
			]
		},
		{
			"mesh":2,
			"name":"Paper bag.001"
		},
		{
			"children":[
				4
			],
			"name":"Paper bag",
			"scale":[
				100,
				100,
				100
			]
		},
		{
			"mesh":3,
			"name":"pCylinder1.001"
		},
		{
			"children":[
				6
			],
			"name":"pCylinder1",
			"rotation":[
				0.627774178981781,
				0,
				0,
				0.7783955335617065
			],
			"scale":[
				138.46380615234375,
				11.26087474822998,
				138.46380615234375
			],
			"translation":[
				0,
				1130.9156494140625,
				267.727783203125
			]
		},
		{
			"children":[
				1,
				3,
				5,
				7
			],
			"name":"RootNode",
			"scale":[
				0.009999999776482582,
				0.009999999776482582,
				0.009999999776482582
			]
		}
	],
	"materials":[
		{
			"name":"plastic_Mat.001",
			"normalTexture":{
				"index":0
			},
			"occlusionTexture":{
				"index":1
			},
			"pbrMetallicRoughness":{
				"baseColorTexture":{
					"index":2
				},
				"metallicRoughnessTexture":{
					"index":1
				}
			}
		},
		{
			"name":"Material.002",
			"normalTexture":{
				"index":3
			},
			"occlusionTexture":{
				"index":4
			},
			"pbrMetallicRoughness":{
				"baseColorTexture":{
					"index":5
				},
				"metallicRoughnessTexture":{
					"index":4
				}
			}
		},
		{
			"name":"paper_Mat.001",
			"normalTexture":{
				"index":6
			},
			"occlusionTexture":{
				"index":7
			},
			"pbrMetallicRoughness":{
				"baseColorTexture":{
					"index":8
				},
				"metallicRoughnessTexture":{
					"index":7
				}
			}
		},
		{
			"name":"seal.001",
			"normalTexture":{
				"index":9
			},
			"occlusionTexture":{
				"index":10
			},
			"pbrMetallicRoughness":{
				"baseColorTexture":{
					"index":11
				},
				"metallicRoughnessTexture":{
					"index":10
				}
			}
		}
	],
	"meshes":[
		{
			"name":"Bendy strip.001",
			"primitives":[
				{
					"attributes":{
						"POSITION":0,
						"NORMAL":1,
						"TEXCOORD_0":2
					},
					"indices":3,
					"material":0
				}
			]
		},
		{
			"name":"Label.001",
			"primitives":[
				{
					"attributes":{
						"POSITION":4,
						"NORMAL":5,
						"TEXCOORD_0":6
					},
					"indices":7,
					"material":1
				}
			]
		},
		{
			"name":"Paper bag.001",
			"primitives":[
				{
					"attributes":{
						"POSITION":8,
						"NORMAL":9,
						"TEXCOORD_0":10
					},
					"indices":11,
					"material":2
				}
			]
		},
		{
			"name":"pCylinder1.001",
			"primitives":[
				{
					"attributes":{
						"POSITION":12,
						"NORMAL":13,
						"TEXCOORD_0":14
					},
					"indices":15,
					"material":3
				}
			]
		}
	],
	"textures":[
		{
			"sampler":0,
			"source":0
		},
		{
			"sampler":0,
			"source":1
		},
		{
			"sampler":0,
			"source":2
		},
		{
			"sampler":0,
			"source":3
		},
		{
			"sampler":0,
			"source":4
		},
		{
			"sampler":0,
			"source":5
		},
		{
			"sampler":0,
			"source":6
		},
		{
			"sampler":0,
			"source":7
		},
		{
			"sampler":0,
			"source":8
		},
		{
			"sampler":0,
			"source":9
		},
		{
			"sampler":0,
			"source":10
		},
		{
			"sampler":0,
			"source":11
		}
	],
	"images":[
		{
			"mimeType":"image/png",
			"name":"Image_8",
			"uri":"Image_8.png"
		},
		{
			"mimeType":"image/png",
			"name":"Image_7",
			"uri":"Image_7.png"
		},
		{
			"mimeType":"image/png",
			"name":"Image_6",
			"uri":"Image_6.png"
		},
		{
			"mimeType":"image/png",
			"name":"Image_2",
			"uri":"Image_2.png"
		},
		{
			"mimeType":"image/png",
			"name":"Image_1",
			"uri":"Image_1.png"
		},
		{
			"mimeType":"image/png",
			"name":"Image_0",
			"uri":"Image_0.png"
		},
		{
			"mimeType":"image/png",
			"name":"Image_5",
			"uri":"Image_5.png"
		},
		{
			"mimeType":"image/png",
			"name":"Image_4",
			"uri":"Image_4.png"
		},
		{
			"mimeType":"image/png",
			"name":"Image_3",
			"uri":"Image_3.png"
		},
		{
			"mimeType":"image/png",
			"name":"Image_11",
			"uri":"Image_11.png"
		},
		{
			"mimeType":"image/png",
			"name":"Image_10",
			"uri":"Image_10.png"
		},
		{
			"mimeType":"image/png",
			"name":"Image_9",
			"uri":"Image_9.png"
		}
	],
	"accessors":[
		{
			"bufferView":0,
			"componentType":5126,
			"count":1168,
			"max":[
				6.487355709075928,
				20.49736785888672,
				0.4746629297733307
			],
			"min":[
				-6.487355709075928,
				19.358278274536133,
				-0.148624986410141
			],
			"type":"VEC3"
		},
		{
			"bufferView":1,
			"componentType":5126,
			"count":1168,
			"type":"VEC3"
		},
		{
			"bufferView":2,
			"componentType":5126,
			"count":1168,
			"type":"VEC2"
		},
		{
			"bufferView":3,
			"componentType":5123,
			"count":5280,
			"type":"SCALAR"
		},
		{
			"bufferView":4,
			"componentType":5126,
			"count":1270,
			"max":[
				4.826488018035889,
				20.907455444335938,
				2.577448844909668
			],
			"min":[
				-4.743239402770996,
				11.271283149719238,
				-2.5257530212402344
			],
			"type":"VEC3"
		},
		{
			"bufferView":5,
			"componentType":5126,
			"count":1270,
			"type":"VEC3"
		},
		{
			"bufferView":6,
			"componentType":5126,
			"count":1270,
			"type":"VEC2"
		},
		{
			"bufferView":7,
			"componentType":5123,
			"count":6072,
			"type":"SCALAR"
		},
		{
			"bufferView":8,
			"componentType":5126,
			"count":5907,
			"max":[
				6.465939044952393,
				20.85745620727539,
				3.8529417514801025
			],
			"min":[
				-6.384023666381836,
				0,
				-3.8529417514801025
			],
			"type":"VEC3"
		},
		{
			"bufferView":9,
			"componentType":5126,
			"count":5907,
			"type":"VEC3"
		},
		{
			"bufferView":10,
			"componentType":5126,
			"count":5907,
			"type":"VEC2"
		},
		{
			"bufferView":11,
			"componentType":5123,
			"count":33060,
			"type":"SCALAR"
		},
		{
			"bufferView":12,
			"componentType":5126,
			"count":3807,
			"max":[
				0.9995061159133911,
				1,
				0.9995060563087463
			],
			"min":[
				-0.999505877494812,
				-1.0000038146972656,
				-0.9995057582855225
			],
			"type":"VEC3"
		},
		{
			"bufferView":13,
			"componentType":5126,
			"count":3807,
			"type":"VEC3"
		},
		{
			"bufferView":14,
			"componentType":5126,
			"count":3807,
			"type":"VEC2"
		},
		{
			"bufferView":15,
			"componentType":5123,
			"count":20400,
			"type":"SCALAR"
		}
	],
	"bufferViews":[
		{
			"buffer":0,
			"byteLength":14016,
			"byteOffset":0,
			"target":34962
		},
		{
			"buffer":0,
			"byteLength":14016,
			"byteOffset":14016,
			"target":34962
		},
		{
			"buffer":0,
			"byteLength":9344,
			"byteOffset":28032,
			"target":34962
		},
		{
			"buffer":0,
			"byteLength":10560,
			"byteOffset":37376,
			"target":34963
		},
		{
			"buffer":0,
			"byteLength":15240,
			"byteOffset":47936,
			"target":34962
		},
		{
			"buffer":0,
			"byteLength":15240,
			"byteOffset":63176,
			"target":34962
		},
		{
			"buffer":0,
			"byteLength":10160,
			"byteOffset":78416,
			"target":34962
		},
		{
			"buffer":0,
			"byteLength":12144,
			"byteOffset":88576,
			"target":34963
		},
		{
			"buffer":0,
			"byteLength":70884,
			"byteOffset":100720,
			"target":34962
		},
		{
			"buffer":0,
			"byteLength":70884,
			"byteOffset":171604,
			"target":34962
		},
		{
			"buffer":0,
			"byteLength":47256,
			"byteOffset":242488,
			"target":34962
		},
		{
			"buffer":0,
			"byteLength":66120,
			"byteOffset":289744,
			"target":34963
		},
		{
			"buffer":0,
			"byteLength":45684,
			"byteOffset":355864,
			"target":34962
		},
		{
			"buffer":0,
			"byteLength":45684,
			"byteOffset":401548,
			"target":34962
		},
		{
			"buffer":0,
			"byteLength":30456,
			"byteOffset":447232,
			"target":34962
		},
		{
			"buffer":0,
			"byteLength":40800,
			"byteOffset":477688,
			"target":34963
		}
	],
	"samplers":[
		{
			"magFilter":9729,
			"minFilter":9987
		}
	],
	"buffers":[
		{
			"byteLength":518488,
			"uri":"untitled.bin"
		}
	]
}
