{
	"asset":{
		"generator":"Khronos glTF Blender I/O v4.1.63",
		"version":"2.0"
	},
	"scene":0,
	"scenes":[
		{
			"name":"Scene",
			"nodes":[
				7
			]
		}
	],
	"nodes":[
		{
			"mesh":0,
			"name":"backed:_polySurface2",
			"scale":[
				5.969371795654297,
				5.969371795654297,
				5.239781856536865
			],
			"translation":[
				0,
				0,
				-9.862421035766602
			]
		},
		{
			"mesh":1,
			"name":"backed:_pSphere1"
		},
		{
			"mesh":2,
			"name":"backed:polySurface11",
			"rotation":[
				-0.0002344869135413319,
				0.05853589251637459,
				-0.00399896502494812,
				0.9982773065567017
			],
			"translation":[
				0.7173712253570557,
				-0.01976659707725048,
				-0.33140283823013306
			]
		},
		{
			"mesh":3,
			"name":"backed:polySurface5"
		},
		{
			"children":[
				1,
				2,
				3
			],
			"name":"backed:botom"
		},
		{
			"mesh":4,
			"name":"backed:_polySurface1",
			"scale":[
				5.969371795654297,
				5.969371795654297,
				5.239781856536865
			],
			"translation":[
				0,
				0,
				-9.862421035766602
			]
		},
		{
			"children":[
				5
			],
			"name":"backed:head"
		},
		{
			"children":[
				0,
				4,
				6
			],
			"name":"backed:all",
			"rotation":[
				0,
				-0.7071066498756409,
				0.70710688829422,
				5.338507236274381e-08
			],
			"scale":[
				0.009999998845160007,
				0.009999998845160007,
				0.009999998845160007
			]
		}
	],
	"animations":[
		{
			"channels":[
				{
					"sampler":0,
					"target":{
						"node":7,
						"path":"translation"
					}
				},
				{
					"sampler":1,
					"target":{
						"node":7,
						"path":"rotation"
					}
				},
				{
					"sampler":2,
					"target":{
						"node":7,
						"path":"scale"
					}
				},
				{
					"sampler":3,
					"target":{
						"node":0,
						"path":"translation"
					}
				},
				{
					"sampler":4,
					"target":{
						"node":0,
						"path":"rotation"
					}
				},
				{
					"sampler":5,
					"target":{
						"node":0,
						"path":"scale"
					}
				},
				{
					"sampler":6,
					"target":{
						"node":4,
						"path":"translation"
					}
				},
				{
					"sampler":7,
					"target":{
						"node":4,
						"path":"rotation"
					}
				},
				{
					"sampler":8,
					"target":{
						"node":4,
						"path":"scale"
					}
				},
				{
					"sampler":9,
					"target":{
						"node":2,
						"path":"translation"
					}
				},
				{
					"sampler":10,
					"target":{
						"node":2,
						"path":"rotation"
					}
				},
				{
					"sampler":11,
					"target":{
						"node":2,
						"path":"scale"
					}
				},
				{
					"sampler":12,
					"target":{
						"node":3,
						"path":"translation"
					}
				},
				{
					"sampler":13,
					"target":{
						"node":3,
						"path":"rotation"
					}
				},
				{
					"sampler":14,
					"target":{
						"node":3,
						"path":"scale"
					}
				}
			],
			"name":"Animation",
			"samplers":[
				{
					"input":20,
					"interpolation":"LINEAR",
					"output":21
				},
				{
					"input":22,
					"interpolation":"STEP",
					"output":23
				},
				{
					"input":22,
					"interpolation":"STEP",
					"output":24
				},
				{
					"input":25,
					"interpolation":"STEP",
					"output":26
				},
				{
					"input":25,
					"interpolation":"STEP",
					"output":27
				},
				{
					"input":25,
					"interpolation":"STEP",
					"output":28
				},
				{
					"input":20,
					"interpolation":"LINEAR",
					"output":29
				},
				{
					"input":20,
					"interpolation":"LINEAR",
					"output":30
				},
				{
					"input":22,
					"interpolation":"STEP",
					"output":31
				},
				{
					"input":20,
					"interpolation":"LINEAR",
					"output":32
				},
				{
					"input":20,
					"interpolation":"LINEAR",
					"output":33
				},
				{
					"input":22,
					"interpolation":"STEP",
					"output":34
				},
				{
					"input":20,
					"interpolation":"LINEAR",
					"output":35
				},
				{
					"input":20,
					"interpolation":"LINEAR",
					"output":36
				},
				{
					"input":22,
					"interpolation":"STEP",
					"output":37
				}
			]
		}
	],
	"materials":[
		{
			"doubleSided":true,
			"name":"backed:eye",
			"pbrMetallicRoughness":{
				"baseColorTexture":{
					"index":0
				},
				"metallicFactor":0,
				"roughnessFactor":0.15733185410499573
			}
		},
		{
			"doubleSided":true,
			"name":"backed:robo",
			"normalTexture":{
				"index":1
			},
			"pbrMetallicRoughness":{
				"baseColorTexture":{
					"index":2
				},
				"metallicRoughnessTexture":{
					"index":3
				}
			}
		}
	],
	"meshes":[
		{
			"name":"Mesh.004",
			"primitives":[
				{
					"attributes":{
						"POSITION":0,
						"NORMAL":1,
						"TEXCOORD_0":2
					},
					"indices":3,
					"material":0
				}
			]
		},
		{
			"name":"Mesh.001",
			"primitives":[
				{
					"attributes":{
						"POSITION":4,
						"NORMAL":5,
						"TEXCOORD_0":6
					},
					"indices":7,
					"material":1
				}
			]
		},
		{
			"name":"Mesh.002",
			"primitives":[
				{
					"attributes":{
						"POSITION":8,
						"NORMAL":9,
						"TEXCOORD_0":10
					},
					"indices":11,
					"material":1
				}
			]
		},
		{
			"name":"Mesh.003",
			"primitives":[
				{
					"attributes":{
						"POSITION":12,
						"NORMAL":13,
						"TEXCOORD_0":14
					},
					"indices":15,
					"material":1
				}
			]
		},
		{
			"name":"Mesh",
			"primitives":[
				{
					"attributes":{
						"POSITION":16,
						"NORMAL":17,
						"TEXCOORD_0":18
					},
					"indices":19,
					"material":1
				}
			]
		}
	],
	"textures":[
		{
			"sampler":0,
			"source":0
		},
		{
			"sampler":0,
			"source":1
		},
		{
			"sampler":0,
			"source":2
		},
		{
			"sampler":0,
			"source":3
		}
	],
	"images":[
		{
			"mimeType":"image/png",
			"name":"eye blink_00000",
			"uri":"eye%20blink_00000.png"
		},
		{
			"mimeType":"image/png",
			"name":"texturing_aiStandardSurface1_Normal",
			"uri":"texturing_aiStandardSurface1_Normal.png"
		},
		{
			"mimeType":"image/png",
			"name":"texturing_aiStandardSurface1_BaseColor",
			"uri":"texturing_aiStandardSurface1_BaseColor.png"
		},
		{
			"mimeType":"image/png",
			"name":"backed:texturing_aiStandardSurface1_Metalness_1-backed:texturin",
			"uri":"backedtexturing_aiStandardSurface1_Metalness_1-backedtexturin.png"
		}
	],
	"accessors":[
		{
			"bufferView":0,
			"componentType":5126,
			"count":369,
			"max":[
				0.3883010149002075,
				-0.38341808319091797,
				0.4279193580150604
			],
			"min":[
				-0.3883010149002075,
				-0.5093547701835632,
				-0.2678664028644562
			],
			"type":"VEC3"
		},
		{
			"bufferView":1,
			"componentType":5126,
			"count":369,
			"type":"VEC3"
		},
		{
			"bufferView":2,
			"componentType":5126,
			"count":369,
			"type":"VEC2"
		},
		{
			"bufferView":3,
			"componentType":5123,
			"count":1920,
			"type":"SCALAR"
		},
		{
			"bufferView":4,
			"componentType":5126,
			"count":11721,
			"max":[
				2.9891629219055176,
				2.159071922302246,
				0.3160797357559204
			],
			"min":[
				-2.989163398742676,
				-3.8192548751831055,
				-6.864440441131592
			],
			"type":"VEC3"
		},
		{
			"bufferView":5,
			"componentType":5126,
			"count":11721,
			"type":"VEC3"
		},
		{
			"bufferView":6,
			"componentType":5126,
			"count":11721,
			"type":"VEC2"
		},
		{
			"bufferView":7,
			"componentType":5123,
			"count":68160,
			"type":"SCALAR"
		},
		{
			"bufferView":8,
			"componentType":5126,
			"count":3032,
			"max":[
				-2.373018503189087,
				-0.279441237449646,
				-2.6333138942718506
			],
			"min":[
				-4.692085266113281,
				-1.1288769245147705,
				-6.2951812744140625
			],
			"type":"VEC3"
		},
		{
			"bufferView":9,
			"componentType":5126,
			"count":3032,
			"type":"VEC3"
		},
		{
			"bufferView":10,
			"componentType":5126,
			"count":3032,
			"type":"VEC2"
		},
		{
			"bufferView":11,
			"componentType":5123,
			"count":16200,
			"type":"SCALAR"
		},
		{
			"bufferView":12,
			"componentType":5126,
			"count":3032,
			"max":[
				4.692085266113281,
				-0.279441237449646,
				-2.6333138942718506
			],
			"min":[
				2.373018503189087,
				-1.1288769245147705,
				-6.2951812744140625
			],
			"type":"VEC3"
		},
		{
			"bufferView":13,
			"componentType":5126,
			"count":3032,
			"type":"VEC3"
		},
		{
			"bufferView":14,
			"componentType":5126,
			"count":3032,
			"type":"VEC2"
		},
		{
			"bufferView":15,
			"componentType":5123,
			"count":16200,
			"type":"SCALAR"
		},
		{
			"bufferView":16,
			"componentType":5126,
			"count":3194,
			"max":[
				0.4785313308238983,
				0.36815086007118225,
				0.5191786289215088
			],
			"min":[
				-0.4785313308238983,
				-0.49985745549201965,
				-0.3634830713272095
			],
			"type":"VEC3"
		},
		{
			"bufferView":17,
			"componentType":5126,
			"count":3194,
			"type":"VEC3"
		},
		{
			"bufferView":18,
			"componentType":5126,
			"count":3194,
			"type":"VEC2"
		},
		{
			"bufferView":19,
			"componentType":5123,
			"count":18432,
			"type":"SCALAR"
		},
		{
			"bufferView":20,
			"componentType":5126,
			"count":204,
			"max":[
				8.5
			],
			"min":[
				0.041666666666666664
			],
			"type":"SCALAR"
		},
		{
			"bufferView":21,
			"componentType":5126,
			"count":204,
			"type":"VEC3"
		},
		{
			"bufferView":22,
			"componentType":5126,
			"count":2,
			"max":[
				8.5
			],
			"min":[
				0.041666666666666664
			],
			"type":"SCALAR"
		},
		{
			"bufferView":23,
			"componentType":5126,
			"count":2,
			"type":"VEC4"
		},
		{
			"bufferView":24,
			"componentType":5126,
			"count":2,
			"type":"VEC3"
		},
		{
			"bufferView":25,
			"componentType":5126,
			"count":2,
			"max":[
				8.75
			],
			"min":[
				0.041666666666666664
			],
			"type":"SCALAR"
		},
		{
			"bufferView":26,
			"componentType":5126,
			"count":2,
			"type":"VEC3"
		},
		{
			"bufferView":27,
			"componentType":5126,
			"count":2,
			"type":"VEC4"
		},
		{
			"bufferView":28,
			"componentType":5126,
			"count":2,
			"type":"VEC3"
		},
		{
			"bufferView":29,
			"componentType":5126,
			"count":204,
			"type":"VEC3"
		},
		{
			"bufferView":30,
			"componentType":5126,
			"count":204,
			"type":"VEC4"
		},
		{
			"bufferView":31,
			"componentType":5126,
			"count":2,
			"type":"VEC3"
		},
		{
			"bufferView":32,
			"componentType":5126,
			"count":204,
			"type":"VEC3"
		},
		{
			"bufferView":33,
			"componentType":5126,
			"count":204,
			"type":"VEC4"
		},
		{
			"bufferView":34,
			"componentType":5126,
			"count":2,
			"type":"VEC3"
		},
		{
			"bufferView":35,
			"componentType":5126,
			"count":204,
			"type":"VEC3"
		},
		{
			"bufferView":36,
			"componentType":5126,
			"count":204,
			"type":"VEC4"
		},
		{
			"bufferView":37,
			"componentType":5126,
			"count":2,
			"type":"VEC3"
		}
	],
	"bufferViews":[
		{
			"buffer":0,
			"byteLength":4428,
			"byteOffset":0,
			"target":34962
		},
		{
			"buffer":0,
			"byteLength":4428,
			"byteOffset":4428,
			"target":34962
		},
		{
			"buffer":0,
			"byteLength":2952,
			"byteOffset":8856,
			"target":34962
		},
		{
			"buffer":0,
			"byteLength":3840,
			"byteOffset":11808,
			"target":34963
		},
		{
			"buffer":0,
			"byteLength":140652,
			"byteOffset":15648,
			"target":34962
		},
		{
			"buffer":0,
			"byteLength":140652,
			"byteOffset":156300,
			"target":34962
		},
		{
			"buffer":0,
			"byteLength":93768,
			"byteOffset":296952,
			"target":34962
		},
		{
			"buffer":0,
			"byteLength":136320,
			"byteOffset":390720,
			"target":34963
		},
		{
			"buffer":0,
			"byteLength":36384,
			"byteOffset":527040,
			"target":34962
		},
		{
			"buffer":0,
			"byteLength":36384,
			"byteOffset":563424,
			"target":34962
		},
		{
			"buffer":0,
			"byteLength":24256,
			"byteOffset":599808,
			"target":34962
		},
		{
			"buffer":0,
			"byteLength":32400,
			"byteOffset":624064,
			"target":34963
		},
		{
			"buffer":0,
			"byteLength":36384,
			"byteOffset":656464,
			"target":34962
		},
		{
			"buffer":0,
			"byteLength":36384,
			"byteOffset":692848,
			"target":34962
		},
		{
			"buffer":0,
			"byteLength":24256,
			"byteOffset":729232,
			"target":34962
		},
		{
			"buffer":0,
			"byteLength":32400,
			"byteOffset":753488,
			"target":34963
		},
		{
			"buffer":0,
			"byteLength":38328,
			"byteOffset":785888,
			"target":34962
		},
		{
			"buffer":0,
			"byteLength":38328,
			"byteOffset":824216,
			"target":34962
		},
		{
			"buffer":0,
			"byteLength":25552,
			"byteOffset":862544,
			"target":34962
		},
		{
			"buffer":0,
			"byteLength":36864,
			"byteOffset":888096,
			"target":34963
		},
		{
			"buffer":0,
			"byteLength":816,
			"byteOffset":924960
		},
		{
			"buffer":0,
			"byteLength":2448,
			"byteOffset":925776
		},
		{
			"buffer":0,
			"byteLength":8,
			"byteOffset":928224
		},
		{
			"buffer":0,
			"byteLength":32,
			"byteOffset":928232
		},
		{
			"buffer":0,
			"byteLength":24,
			"byteOffset":928264
		},
		{
			"buffer":0,
			"byteLength":8,
			"byteOffset":928288
		},
		{
			"buffer":0,
			"byteLength":24,
			"byteOffset":928296
		},
		{
			"buffer":0,
			"byteLength":32,
			"byteOffset":928320
		},
		{
			"buffer":0,
			"byteLength":24,
			"byteOffset":928352
		},
		{
			"buffer":0,
			"byteLength":2448,
			"byteOffset":928376
		},
		{
			"buffer":0,
			"byteLength":3264,
			"byteOffset":930824
		},
		{
			"buffer":0,
			"byteLength":24,
			"byteOffset":934088
		},
		{
			"buffer":0,
			"byteLength":2448,
			"byteOffset":934112
		},
		{
			"buffer":0,
			"byteLength":3264,
			"byteOffset":936560
		},
		{
			"buffer":0,
			"byteLength":24,
			"byteOffset":939824
		},
		{
			"buffer":0,
			"byteLength":2448,
			"byteOffset":939848
		},
		{
			"buffer":0,
			"byteLength":3264,
			"byteOffset":942296
		},
		{
			"buffer":0,
			"byteLength":24,
			"byteOffset":945560
		}
	],
	"samplers":[
		{
			"magFilter":9729,
			"minFilter":9987
		}
	],
	"buffers":[
		{
			"byteLength":945584,
			"uri":"untitled.bin"
		}
	]
}
