{
	"asset":{
		"generator":"Khronos glTF Blender I/O v4.1.63",
		"version":"2.0"
	},
	"scene":0,
	"scenes":[
		{
			"name":"Scene",
			"nodes":[
				2
			]
		}
	],
	"nodes":[
		{
			"mesh":0,
			"name":"Final_cap.001"
		},
		{
			"children":[
				0
			],
			"name":"Final_cap"
		},
		{
			"children":[
				1
			],
			"name":"RootNode",
			"scale":[
				0.009999999776482582,
				0.009999999776482582,
				0.009999999776482582
			]
		}
	],
	"materials":[
		{
			"name":"aiStandardSurface1.002",
			"normalTexture":{
				"index":0
			},
			"occlusionTexture":{
				"index":1
			},
			"pbrMetallicRoughness":{
				"baseColorTexture":{
					"index":2
				},
				"metallicRoughnessTexture":{
					"index":1
				}
			}
		}
	],
	"meshes":[
		{
			"name":"Final_cap",
			"primitives":[
				{
					"attributes":{
						"POSITION":0,
						"NORMAL":1,
						"TEXCOORD_0":2
					},
					"indices":3,
					"material":0
				}
			]
		}
	],
	"textures":[
		{
			"sampler":0,
			"source":0
		},
		{
			"sampler":0,
			"source":1
		},
		{
			"sampler":0,
			"source":2
		}
	],
	"images":[
		{
			"mimeType":"image/png",
			"name":"Image_2",
			"uri":"Image_2.png"
		},
		{
			"mimeType":"image/png",
			"name":"Image_1",
			"uri":"Image_1.png"
		},
		{
			"mimeType":"image/png",
			"name":"Image_0",
			"uri":"Image_0.png"
		}
	],
	"accessors":[
		{
			"bufferView":0,
			"componentType":5126,
			"count":97233,
			"max":[
				63.98518371582031,
				258.42718505859375,
				58.7320442199707
			],
			"min":[
				-29.055620193481445,
				132.6318817138672,
				-59.9830436706543
			],
			"type":"VEC3"
		},
		{
			"bufferView":1,
			"componentType":5126,
			"count":97233,
			"type":"VEC3"
		},
		{
			"bufferView":2,
			"componentType":5126,
			"count":97233,
			"type":"VEC2"
		},
		{
			"bufferView":3,
			"componentType":5125,
			"count":413178,
			"type":"SCALAR"
		}
	],
	"bufferViews":[
		{
			"buffer":0,
			"byteLength":1166796,
			"byteOffset":0,
			"target":34962
		},
		{
			"buffer":0,
			"byteLength":1166796,
			"byteOffset":1166796,
			"target":34962
		},
		{
			"buffer":0,
			"byteLength":777864,
			"byteOffset":2333592,
			"target":34962
		},
		{
			"buffer":0,
			"byteLength":1652712,
			"byteOffset":3111456,
			"target":34963
		}
	],
	"samplers":[
		{
			"magFilter":9729,
			"minFilter":9987
		}
	],
	"buffers":[
		{
			"byteLength":4764168,
			"uri":"untitled.bin"
		}
	]
}
