{
	"asset":{
		"generator":"Khronos glTF Blender I/O v4.1.63",
		"version":"2.0"
	},
	"scene":0,
	"scenes":[
		{
			"name":"Scene",
			"nodes":[
				5
			]
		}
	],
	"nodes":[
		{
			"mesh":0,
			"name":"polySurface1.001"
		},
		{
			"children":[
				0
			],
			"name":"polySurface1"
		},
		{
			"children":[
				1
			],
			"name":"pCylinder1",
			"scale":[
				5.780671119689941,
				9.955599784851074,
				5.780671119689941
			],
			"translation":[
				0,
				1.0048085451126099,
				0
			]
		},
		{
			"mesh":1,
			"name":"polySurface5.001"
		},
		{
			"children":[
				3
			],
			"name":"polySurface5",
			"scale":[
				1.0501056909561157,
				1.0501056909561157,
				1.0501056909561157
			],
			"translation":[
				5.27362060546875,
				-11.957030296325684,
				0.00029849816928617656
			]
		},
		{
			"children":[
				2,
				4
			],
			"name":"RootNode",
			"scale":[
				0.009999999776482582,
				0.009999999776482582,
				0.009999999776482582
			]
		}
	],
	"materials":[
		{
			"name":"aiStandardSurface1.001",
			"normalTexture":{
				"index":0
			},
			"occlusionTexture":{
				"index":1
			},
			"pbrMetallicRoughness":{
				"baseColorTexture":{
					"index":2
				},
				"metallicRoughnessTexture":{
					"index":1
				}
			}
		}
	],
	"meshes":[
		{
			"name":"polySurface1",
			"primitives":[
				{
					"attributes":{
						"POSITION":0,
						"NORMAL":1,
						"TEXCOORD_0":2
					},
					"indices":3,
					"material":0
				}
			]
		},
		{
			"name":"polySurface5",
			"primitives":[
				{
					"attributes":{
						"POSITION":4,
						"NORMAL":5,
						"TEXCOORD_0":6
					},
					"indices":7,
					"material":0
				}
			]
		}
	],
	"textures":[
		{
			"sampler":0,
			"source":0
		},
		{
			"sampler":0,
			"source":1
		},
		{
			"sampler":0,
			"source":2
		}
	],
	"images":[
		{
			"mimeType":"image/png",
			"name":"Image_2",
			"uri":"Image_2.png"
		},
		{
			"mimeType":"image/png",
			"name":"Image_1",
			"uri":"Image_1.png"
		},
		{
			"mimeType":"image/png",
			"name":"Image_0",
			"uri":"Image_0.png"
		}
	],
	"accessors":[
		{
			"bufferView":0,
			"componentType":5126,
			"count":11691,
			"max":[
				0.9844945669174194,
				1.2952566146850586,
				0.9844945669174194
			],
			"min":[
				-0.9844946265220642,
				-1.058653712272644,
				-0.9844949245452881
			],
			"type":"VEC3"
		},
		{
			"bufferView":1,
			"componentType":5126,
			"count":11691,
			"type":"VEC3"
		},
		{
			"bufferView":2,
			"componentType":5126,
			"count":11691,
			"type":"VEC2"
		},
		{
			"bufferView":3,
			"componentType":5123,
			"count":66720,
			"type":"SCALAR"
		},
		{
			"bufferView":4,
			"componentType":5126,
			"count":5272,
			"max":[
				-1.0897531509399414,
				24.53302764892578,
				3.9516191482543945
			],
			"min":[
				-8.954227447509766,
				24.248882293701172,
				-3.963533878326416
			],
			"type":"VEC3"
		},
		{
			"bufferView":5,
			"componentType":5126,
			"count":5272,
			"type":"VEC3"
		},
		{
			"bufferView":6,
			"componentType":5126,
			"count":5272,
			"type":"VEC2"
		},
		{
			"bufferView":7,
			"componentType":5123,
			"count":27552,
			"type":"SCALAR"
		}
	],
	"bufferViews":[
		{
			"buffer":0,
			"byteLength":140292,
			"byteOffset":0,
			"target":34962
		},
		{
			"buffer":0,
			"byteLength":140292,
			"byteOffset":140292,
			"target":34962
		},
		{
			"buffer":0,
			"byteLength":93528,
			"byteOffset":280584,
			"target":34962
		},
		{
			"buffer":0,
			"byteLength":133440,
			"byteOffset":374112,
			"target":34963
		},
		{
			"buffer":0,
			"byteLength":63264,
			"byteOffset":507552,
			"target":34962
		},
		{
			"buffer":0,
			"byteLength":63264,
			"byteOffset":570816,
			"target":34962
		},
		{
			"buffer":0,
			"byteLength":42176,
			"byteOffset":634080,
			"target":34962
		},
		{
			"buffer":0,
			"byteLength":55104,
			"byteOffset":676256,
			"target":34963
		}
	],
	"samplers":[
		{
			"magFilter":9729,
			"minFilter":9987
		}
	],
	"buffers":[
		{
			"byteLength":731360,
			"uri":"untitled.bin"
		}
	]
}
