{
	"asset":{
		"generator":"Khronos glTF Blender I/O v4.1.63",
		"version":"2.0"
	},
	"scene":0,
	"scenes":[
		{
			"name":"Scene",
			"nodes":[
				2
			]
		}
	],
	"nodes":[
		{
			"mesh":0,
			"name":"Volume rocker1.001"
		},
		{
			"children":[
				0
			],
			"name":"Volume rocker1"
		},
		{
			"children":[
				1
			],
			"name":"RootNode",
			"scale":[
				0.009999999776482582,
				0.009999999776482582,
				0.009999999776482582
			]
		}
	],
	"materials":[
		{
			"emissiveFactor":[
				1,
				1,
				1
			],
			"emissiveTexture":{
				"index":0
			},
			"name":"aiStandardSurface1",
			"normalTexture":{
				"index":1
			},
			"occlusionTexture":{
				"index":2
			},
			"pbrMetallicRoughness":{
				"baseColorTexture":{
					"index":3
				},
				"metallicRoughnessTexture":{
					"index":2
				}
			}
		}
	],
	"meshes":[
		{
			"name":"Volume rocker1",
			"primitives":[
				{
					"attributes":{
						"POSITION":0,
						"NORMAL":1,
						"TEXCOORD_0":2
					},
					"indices":3,
					"material":0
				}
			]
		}
	],
	"textures":[
		{
			"sampler":0,
			"source":0
		},
		{
			"sampler":0,
			"source":1
		},
		{
			"sampler":0,
			"source":2
		},
		{
			"sampler":0,
			"source":3
		}
	],
	"images":[
		{
			"mimeType":"image/png",
			"name":"Image_3",
			"uri":"Image_3.png"
		},
		{
			"mimeType":"image/png",
			"name":"Image_2",
			"uri":"Image_2.png"
		},
		{
			"mimeType":"image/png",
			"name":"Image_1",
			"uri":"Image_1.png"
		},
		{
			"mimeType":"image/png",
			"name":"Image_0",
			"uri":"Image_0.png"
		}
	],
	"accessors":[
		{
			"bufferView":0,
			"componentType":5126,
			"count":174267,
			"max":[
				7.560375213623047,
				15.83797836303711,
				0.4264872670173645
			],
			"min":[
				-0.15027451515197754,
				-0.039795875549316406,
				-0.63668292760849
			],
			"type":"VEC3"
		},
		{
			"bufferView":1,
			"componentType":5126,
			"count":174267,
			"type":"VEC3"
		},
		{
			"bufferView":2,
			"componentType":5126,
			"count":174267,
			"type":"VEC2"
		},
		{
			"bufferView":3,
			"componentType":5125,
			"count":894924,
			"type":"SCALAR"
		}
	],
	"bufferViews":[
		{
			"buffer":0,
			"byteLength":2091204,
			"byteOffset":0,
			"target":34962
		},
		{
			"buffer":0,
			"byteLength":2091204,
			"byteOffset":2091204,
			"target":34962
		},
		{
			"buffer":0,
			"byteLength":1394136,
			"byteOffset":4182408,
			"target":34962
		},
		{
			"buffer":0,
			"byteLength":3579696,
			"byteOffset":5576544,
			"target":34963
		}
	],
	"samplers":[
		{
			"magFilter":9729,
			"minFilter":9987
		}
	],
	"buffers":[
		{
			"byteLength":9156240,
			"uri":"untitled.bin"
		}
	]
}
