{
	"asset":{
		"generator":"Khronos glTF Blender I/O v4.1.63",
		"version":"2.0"
	},
	"scene":0,
	"scenes":[
		{
			"name":"Scene",
			"nodes":[
				4
			]
		}
	],
	"nodes":[
		{
			"mesh":0,
			"name":"Frame.001"
		},
		{
			"children":[
				0
			],
			"name":"Frame",
			"rotation":[
				-0.70710688829422,
				0,
				0,
				0.7071066498756409
			],
			"scale":[
				100,
				99.9999771118164,
				99.9999771118164
			],
			"translation":[
				0,
				0.9755473732948303,
				0
			]
		},
		{
			"mesh":1,
			"name":"Screen.001"
		},
		{
			"children":[
				2
			],
			"name":"Screen",
			"rotation":[
				0,
				-1,
				0,
				1.9470718370939721e-07
			],
			"scale":[
				100,
				100,
				88.23529815673828
			],
			"translation":[
				0,
				0.6500000357627869,
				-10.30000114440918
			]
		},
		{
			"children":[
				1,
				3
			],
			"name":"RootNode",
			"scale":[
				0.009999999776482582,
				0.009999999776482582,
				0.009999999776482582
			]
		}
	],
	"materials":[
		{
			"name":"ComputerFrame",
			"normalTexture":{
				"index":0
			},
			"occlusionTexture":{
				"index":1
			},
			"pbrMetallicRoughness":{
				"baseColorTexture":{
					"index":2
				},
				"metallicRoughnessTexture":{
					"index":1
				}
			}
		},
		{
			"name":"ComputerScreen",
			"normalTexture":{
				"index":3
			},
			"occlusionTexture":{
				"index":4
			},
			"pbrMetallicRoughness":{
				"baseColorTexture":{
					"index":5
				},
				"metallicRoughnessTexture":{
					"index":4
				}
			}
		}
	],
	"meshes":[
		{
			"name":"Frame",
			"primitives":[
				{
					"attributes":{
						"POSITION":0,
						"NORMAL":1,
						"TEXCOORD_0":2
					},
					"indices":3,
					"material":0
				}
			]
		},
		{
			"name":"Screen",
			"primitives":[
				{
					"attributes":{
						"POSITION":4,
						"NORMAL":5,
						"TEXCOORD_0":6
					},
					"indices":7,
					"material":1
				}
			]
		}
	],
	"textures":[
		{
			"sampler":0,
			"source":0
		},
		{
			"sampler":0,
			"source":1
		},
		{
			"sampler":0,
			"source":2
		},
		{
			"sampler":0,
			"source":3
		},
		{
			"sampler":0,
			"source":4
		},
		{
			"sampler":0,
			"source":5
		}
	],
	"images":[
		{
			"mimeType":"image/png",
			"name":"Image_2",
			"uri":"Image_2.png"
		},
		{
			"mimeType":"image/png",
			"name":"Image_1",
			"uri":"Image_1.png"
		},
		{
			"mimeType":"image/png",
			"name":"Image_0",
			"uri":"Image_0.png"
		},
		{
			"mimeType":"image/png",
			"name":"Image_5",
			"uri":"Image_5.png"
		},
		{
			"mimeType":"image/png",
			"name":"Image_4",
			"uri":"Image_4.png"
		},
		{
			"mimeType":"image/png",
			"name":"Image_3",
			"uri":"Image_3.png"
		}
	],
	"accessors":[
		{
			"bufferView":0,
			"componentType":5126,
			"count":8252,
			"max":[
				0.15199998021125793,
				0.10500108450651169,
				4.518777132034302e-06
			],
			"min":[
				-0.15200001001358032,
				-0.09603267163038254,
				-0.009755842387676239
			],
			"type":"VEC3"
		},
		{
			"bufferView":1,
			"componentType":5126,
			"count":8252,
			"type":"VEC3"
		},
		{
			"bufferView":2,
			"componentType":5126,
			"count":8252,
			"type":"VEC2"
		},
		{
			"bufferView":3,
			"componentType":5123,
			"count":24492,
			"type":"SCALAR"
		},
		{
			"bufferView":4,
			"componentType":5126,
			"count":205,
			"max":[
				0.15200002491474152,
				0.1990847885608673,
				0.00677068904042244
			],
			"min":[
				-0.15199999511241913,
				-0.0019489750266075134,
				-0.0046225860714912415
			],
			"type":"VEC3"
		},
		{
			"bufferView":5,
			"componentType":5126,
			"count":205,
			"type":"VEC3"
		},
		{
			"bufferView":6,
			"componentType":5126,
			"count":205,
			"type":"VEC2"
		},
		{
			"bufferView":7,
			"componentType":5123,
			"count":474,
			"type":"SCALAR"
		}
	],
	"bufferViews":[
		{
			"buffer":0,
			"byteLength":99024,
			"byteOffset":0,
			"target":34962
		},
		{
			"buffer":0,
			"byteLength":99024,
			"byteOffset":99024,
			"target":34962
		},
		{
			"buffer":0,
			"byteLength":66016,
			"byteOffset":198048,
			"target":34962
		},
		{
			"buffer":0,
			"byteLength":48984,
			"byteOffset":264064,
			"target":34963
		},
		{
			"buffer":0,
			"byteLength":2460,
			"byteOffset":313048,
			"target":34962
		},
		{
			"buffer":0,
			"byteLength":2460,
			"byteOffset":315508,
			"target":34962
		},
		{
			"buffer":0,
			"byteLength":1640,
			"byteOffset":317968,
			"target":34962
		},
		{
			"buffer":0,
			"byteLength":948,
			"byteOffset":319608,
			"target":34963
		}
	],
	"samplers":[
		{
			"magFilter":9729,
			"minFilter":9987
		}
	],
	"buffers":[
		{
			"byteLength":320556,
			"uri":"untitled.bin"
		}
	]
}
