{
	"asset":{
		"generator":"Khronos glTF Blender I/O v4.1.63",
		"version":"2.0"
	},
	"scene":0,
	"scenes":[
		{
			"name":"Scene",
			"nodes":[
				2
			]
		}
	],
	"nodes":[
		{
			"mesh":0,
			"name":"sofa_chair.001"
		},
		{
			"children":[
				0
			],
			"name":"sofa_chair"
		},
		{
			"children":[
				1
			],
			"name":"RootNode",
			"scale":[
				0.009999999776482582,
				0.009999999776482582,
				0.009999999776482582
			]
		}
	],
	"materials":[
		{
			"name":"aiStandardSurface1.003",
			"normalTexture":{
				"index":0
			},
			"occlusionTexture":{
				"index":1
			},
			"pbrMetallicRoughness":{
				"baseColorTexture":{
					"index":2
				},
				"metallicRoughnessTexture":{
					"index":1
				}
			}
		}
	],
	"meshes":[
		{
			"name":"sofa_chair.001",
			"primitives":[
				{
					"attributes":{
						"POSITION":0,
						"NORMAL":1,
						"TEXCOORD_0":2
					},
					"indices":3,
					"material":0
				}
			]
		}
	],
	"textures":[
		{
			"sampler":0,
			"source":0
		},
		{
			"sampler":0,
			"source":1
		},
		{
			"sampler":0,
			"source":2
		}
	],
	"images":[
		{
			"mimeType":"image/png",
			"name":"Image_2",
			"uri":"Image_2.png"
		},
		{
			"mimeType":"image/png",
			"name":"Image_1",
			"uri":"Image_1.png"
		},
		{
			"mimeType":"image/png",
			"name":"Image_0",
			"uri":"Image_0.png"
		}
	],
	"accessors":[
		{
			"bufferView":0,
			"componentType":5126,
			"count":64770,
			"max":[
				84.19795227050781,
				99.8643569946289,
				70.1681900024414
			],
			"min":[
				-84.19795227050781,
				-37.25347137451172,
				-89.19274139404297
			],
			"type":"VEC3"
		},
		{
			"bufferView":1,
			"componentType":5126,
			"count":64770,
			"type":"VEC3"
		},
		{
			"bufferView":2,
			"componentType":5126,
			"count":64770,
			"type":"VEC2"
		},
		{
			"bufferView":3,
			"componentType":5123,
			"count":374448,
			"type":"SCALAR"
		}
	],
	"bufferViews":[
		{
			"buffer":0,
			"byteLength":777240,
			"byteOffset":0,
			"target":34962
		},
		{
			"buffer":0,
			"byteLength":777240,
			"byteOffset":777240,
			"target":34962
		},
		{
			"buffer":0,
			"byteLength":518160,
			"byteOffset":1554480,
			"target":34962
		},
		{
			"buffer":0,
			"byteLength":748896,
			"byteOffset":2072640,
			"target":34963
		}
	],
	"samplers":[
		{
			"magFilter":9729,
			"minFilter":9987
		}
	],
	"buffers":[
		{
			"byteLength":2821536,
			"uri":"untitled.bin"
		}
	]
}
