{
  "accessors": [
    {
      "bufferView": 0,
      "componentType": 5125,
      "count": 2268,
      "type": "SCALAR"
    },
    {
      "bufferView": 1,
      "componentType": 5126,
      "count": 864,
      "max": [
        5.74907493591309,
        5.75217342376709,
        -0.00330924987792969
      ],
      "min": [
        0.00254487991333008,
        0.00562739372253418,
        -5.74983787536621
      ],
      "type": "VEC3"
    },
    {
      "bufferView": 2,
      "componentType": 5126,
      "count": 864,
      "type": "VEC3"
    },
    {
      "bufferView": 3,
      "componentType": 5126,
      "count": 864,
      "type": "VEC4"
    },
    {
      "bufferView": 4,
      "componentType": 5126,
      "count": 864,
      "type": "VEC2"
    },
    {
      "bufferView": 5,
      "componentType": 5125,
      "count": 37980,
      "type": "SCALAR"
    },
    {
      "bufferView": 6,
      "componentType": 5126,
      "count": 8880,
      "max": [
        5.74907493591309,
        5.75217342376709,
        -0.00330924987792969
      ],
      "min": [
        0.00254487991333008,
        0.00562739372253418,
        -5.74983787536621
      ],
      "type": "VEC3"
    },
    {
      "bufferView": 7,
      "componentType": 5126,
      "count": 8880,
      "type": "VEC3"
    },
    {
      "bufferView": 8,
      "componentType": 5126,
      "count": 8880,
      "type": "VEC4"
    },
    {
      "bufferView": 9,
      "componentType": 5126,
      "count": 8880,
      "type": "VEC2"
    }
  ],
  "asset": {
    "generator": "Adobe Substance 3D Painter 9.1.2",
    "version": "2.0"
  },
  "bufferViews": [
    {
      "buffer": 0,
      "byteLength": 9072,
      "target": 34963
    },
    {
      "buffer": 0,
      "byteLength": 10368,
      "byteOffset": 9072,
      "target": 34962
    },
    {
      "buffer": 0,
      "byteLength": 10368,
      "byteOffset": 19440,
      "target": 34962
    },
    {
      "buffer": 0,
      "byteLength": 13824,
      "byteOffset": 29808,
      "target": 34962
    },
    {
      "buffer": 0,
      "byteLength": 6912,
      "byteOffset": 43632,
      "target": 34962
    },
    {
      "buffer": 0,
      "byteLength": 151920,
      "byteOffset": 50544,
      "target": 34963
    },
    {
      "buffer": 0,
      "byteLength": 106560,
      "byteOffset": 202464,
      "target": 34962
    },
    {
      "buffer": 0,
      "byteLength": 106560,
      "byteOffset": 309024,
      "target": 34962
    },
    {
      "buffer": 0,
      "byteLength": 142080,
      "byteOffset": 415584,
      "target": 34962
    },
    {
      "buffer": 0,
      "byteLength": 71040,
      "byteOffset": 557664,
      "target": 34962
    }
  ],
  "buffers": [
    {
      "byteLength": 628704,
      "uri": "Untitled.bin"
    }
  ],
  "images": [
    {
      "uri": "Silberner_Wrfel_1_baseColor.png"
    },
    {
      "uri": "Silberner_Wrfel_1_occlusionRoughnessMetallic.png"
    },
    {
      "uri": "Silberner_Wrfel_1_normal.png"
    },
    {
      "uri": "Silberner_Wrfel_2_baseColor.png"
    },
    {
      "uri": "Silberner_Wrfel_2_occlusionRoughnessMetallic.png"
    },
    {
      "uri": "Silberner_Wrfel_2_normal.png"
    }
  ],
  "materials": [
    {
      "alphaMode": "OPAQUE",
      "name": "Silberner_Wrfel_1",
      "normalTexture": {
        "index": 2
      },
      "occlusionTexture": {
        "index": 1
      },
      "pbrMetallicRoughness": {
        "baseColorTexture": {
          "index": 0
        },
        "metallicRoughnessTexture": {
          "index": 1
        }
      }
    },
    {
      "alphaMode": "OPAQUE",
      "name": "Silberner_Wrfel_2",
      "normalTexture": {
        "index": 5
      },
      "occlusionTexture": {
        "index": 4
      },
      "pbrMetallicRoughness": {
        "baseColorTexture": {
          "index": 3
        },
        "metallicRoughnessTexture": {
          "index": 4
        }
      }
    }
  ],
  "meshes": [
    {
      "name": "Object_0",
      "primitives": [
        {
          "attributes": {
            "NORMAL": 2,
            "POSITION": 1,
            "TANGENT": 3,
            "TEXCOORD_0": 4
          },
          "indices": 0,
          "material": 1,
          "mode": 4
        }
      ]
    },
    {
      "name": "Object_1",
      "primitives": [
        {
          "attributes": {
            "NORMAL": 7,
            "POSITION": 6,
            "TANGENT": 8,
            "TEXCOORD_0": 9
          },
          "indices": 5,
          "material": 0,
          "mode": 4
        }
      ]
    }
  ],
  "nodes": [
    {
      "children": [
        1
      ],
      "name": "Sketchfab_model",
      "rotation": [
        -0.70710676908493,
        0.0,
        0.0,
        0.70710676908493
      ],
      "scale": [
        0.0136986300349236,
        0.0136986300349236,
        0.0136986300349236
      ]
    },
    {
      "children": [
        2
      ],
      "name": "root"
    },
    {
      "children": [
        3
      ],
      "name": "GLTF_SceneRootNode",
      "rotation": [
        0.70710676908493,
        0.0,
        0.0,
        0.70710676908493
      ]
    },
    {
      "children": [
        4
      ],
      "name": "Armature_27",
      "translation": [
        2.2610011100769,
        3.85999703407288,
        -2.65649771690369
      ]
    },
    {
      "children": [
        5,
        6,
        8
      ],
      "name": "GLTF_created_0"
    },
    {
      "name": "GLTF_created_0_rootJoint"
    },
    {
      "children": [
        7
      ],
      "name": "Object_7"
    },
    {
      "mesh": 0,
      "name": "Object_0"
    },
    {
      "children": [
        9
      ],
      "name": "Object_8"
    },
    {
      "mesh": 1,
      "name": "Object_1"
    }
  ],
  "samplers": [
    {
      "magFilter": 9729,
      "minFilter": 9985,
      "wrapS": 10497,
      "wrapT": 10497
    }
  ],
  "scene": 0,
  "scenes": [
    {
      "name": "Scene",
      "nodes": [
        0
      ]
    }
  ],
  "textures": [
    {
      "sampler": 0,
      "source": 0
    },
    {
      "sampler": 0,
      "source": 1
    },
    {
      "sampler": 0,
      "source": 2
    },
    {
      "sampler": 0,
      "source": 3
    },
    {
      "sampler": 0,
      "source": 4
    },
    {
      "sampler": 0,
      "source": 5
    }
  ]
}